Coordinates																																									
version=1																																									
nRows=15																																									
nColumns=42																																									
inDegrees=yes																																									
																																									
"Units are S.I. units (second, meters, Newtons, ...)"																																									
Angles are in degrees.																																									
																																									
endheader																																									
time	pelvis_tx	pelvis_ty	pelvis_tz	pelvis_tilt	pelvis_list	pelvis_rotation	hip_flexion_r	hip_adduction_r	hip_rotation_r	knee_angle_r	ankle_angle_r	subtalar_angle_r	mtp_angle_r	hip_flexion_l	hip_adduction_l	hip_rotation_l	knee_angle_l	ankle_angle_l	subtalar_angle_l	mtp_angle_l	lumbar_extension	lumbar_bending	lumbar_rotation	ground_force_vx	ground_force_vy	ground_force_vz	ground_force_px	ground_force_py	ground_force_pz	ground_force_vx	ground_force_vy	ground_force_vz	ground_force_px	ground_force_py	ground_force_pz	ground_torque_x	ground_torque_y	ground_torque_z	ground_torque_x	ground_torque_y	ground_torque_z
3.18	-0.076718	0.758148	0.010028	-2.913473	-8.908025	86.406319	9.745516	-4.612532	15.072721	-59.040114	19.000454	0	0	33.831686	19.50436	32.623818	-63.799383	24.287126	0	0	32.987631	-0.099623	19.72714	-2.42898	45.291134	10.651052	0.164635	0.019951	0.310446	33.953239	342.119293	19.169092	-0.21373	0.00735	0.034248	0.004362	0.883352	-0.016289	-0.006634	5.77592	-0.012277
3.19	-0.076766	0.759735	0.005438	-2.33221	-8.609307	86.39489	9.258716	-4.870418	12.877056	-57.791269	20.401234	0	0	33.019781	17.939319	31.077166	-62.425737	25.721381	0	0	32.214888	-0.226996	18.939729	-1.073856	34.13773	11.351856	0.161648	0.015955	0.306053	36.849007	349.054962	18.716566	-0.211526	0.003085	0.031921	0.003787	0.766918	-0.014142	-0.00696	6.059887	-0.012881
3.2	-0.076805	0.761065	0.000968	-1.823374	-8.403712	86.290306	8.95023	-5.067827	11.004818	-56.772491	21.80381	0	0	32.320452	16.554456	29.705698	-61.2313	27.007907	0	0	31.547821	-0.343135	18.309036	-0.201209	24.668871	11.318321	0.158672	0.01247	0.300094	39.868771	357.211609	18.136934	-0.209686	-0.00053	0.029631	0.003286	0.665529	-0.012272	-0.007312	6.365963	-0.013531
3.21	-0.076832	0.762005	-0.003284	-1.407378	-8.331837	86.070305	8.918634	-5.162781	9.609013	-56.095025	23.173334	0	0	31.78825	15.440447	28.630128	-60.321717	28.062659	0	0	31.038432	-0.424271	17.890205	0	0	0	0	0	0	42.881599	366.338196	17.379974	-0.208362	-0.003255	0.027557	0	0	0	-0.007698	6.702256	-0.014246
3.22	-0.076852	0.762534	-0.007273	-1.069828	-8.393322	85.741661	9.182776	-5.136225	8.691136	-55.770031	24.50867	0	0	31.424717	14.603542	27.89005	-59.719773	28.870875	0	0	30.686537	-0.445993	17.687837	0	0	0	0	0	0	45.747604	376.118347	16.404459	-0.207524	-0.005104	0.025839	0	0	0	-0.008125	7.074185	-0.015037
3.23	-0.07687	0.762706	-0.010994	-0.787438	-8.561178	85.326508	9.711438	-4.997293	8.158757	-55.750586	25.819121	0	0	31.195574	14.006592	27.466646	-59.388843	29.458476	0	0	30.460434	-0.398373	17.671564	0	0	0	0	0	0	48.32793	386.197876	15.194231	-0.207051	-0.006225	0.024522	0	0	0	-0.008595	7.482815	-0.015905
3.24	-0.076879	0.762614	-0.01447	-0.541233	-8.799599	84.850128	10.454691	-4.772986	7.885981	-55.969606	27.104206	0	0	31.053496	13.5982	27.309019	-59.2637	29.867744	0	0	30.319251	-0.288238	17.785881	0	0	0	0	0	0	50.505566	396.233887	13.755875	-0.206809	-0.006806	0.023563	0	0	0	-0.009102	7.924657	-0.016844
3.25	-0.076867	0.762353	-0.017737	-0.314637	-9.076305	84.333549	11.36396	-4.490814	7.752021	-56.360529	28.347245	0	0	30.955268	13.321746	27.353091	-59.275175	30.144261	0	0	30.226189	-0.126506	17.970467	0	0	0	0	0	0	52.207794	405.941162	12.106651	-0.206687	-0.007026	0.02288	0	0	0	-0.009638	8.391498	-0.017837
3.26	-0.076808	0.76201	-0.020835	-0.09776	-9.367028	83.787384	12.402541	-4.176665	7.662059	-56.869579	29.522837	0	0	30.869822	13.124278	27.527179	-59.362117	30.329216	0	0	30.153847	0.076816	18.189516	0	0	0	0	0	0	53.418293	415.099182	10.277981	-0.206606	-0.007031	0.022374	0	0	0	-0.010189	8.870661	-0.018855
3.27	-0.076672	0.761655	-0.023803	0.107277	-9.65292	83.213257	13.544331	-3.860682	7.54968	-57.459335	30.608151	0	0	30.776388	12.966147	27.756724	-59.474931	30.455984	0	0	30.082513	0.308651	18.439901	0	0	0	0	0	0	54.176132	423.533936	8.327689	-0.206516	-0.006928	0.02195	0	0	0	-0.010735	9.345991	-0.019865
3.28	-0.076441	0.761346	-0.026676	0.293756	-9.918652	82.614197	14.767299	-3.573132	7.365882	-58.102705	31.587654	0	0	30.660569	12.821775	27.979638	-59.578367	30.550166	0	0	29.997412	0.554756	18.729308	0	0	0	0	0	0	54.56979	431.099335	6.349138	-0.2064	-0.00678	0.021529	0	0	0	-0.011255	9.79906	-0.020828
3.29	-0.07613	0.761119	-0.029487	0.465422	-10.15622	82.004173	16.05125	-3.330401	7.069318	-58.773464	32.451106	0	0	30.516107	12.670453	28.16128	-59.654906	30.632111	0	0	29.890281	0.808985	19.047652	0	0	0	0	0	0	54.718208	437.660797	4.473934	-0.20627	-0.006625	0.02104	0	0	0	-0.011728	10.210914	-0.021704
3.3	-0.075776	0.760996	-0.032257	0.64355	-10.367239	81.407104	17.377936	-3.125106	6.629014	-59.441156	33.191137	0	0	30.346804	12.4866	28.293497	-59.704405	30.720094	0	0	29.760002	1.079033	19.360765	0	0	0	0	0	0	54.752762	443.08847	2.859556	-0.206155	-0.006482	0.020409	0	0	0	-0.012133	10.563075	-0.022452
3.31	-0.075419	0.760987	-0.034998	0.857417	-10.556485	80.848343	18.728505	-2.934984	6.031518	-60.073734	33.805649	0	0	30.159598	12.242957	28.382264	-59.736069	30.82951	0	0	29.606913	1.379862	19.626975	0	0	0	0	0	0	54.801537	447.267151	1.667935	-0.206084	-0.006363	0.019563	0	0	0	-0.012451	10.840116	-0.023041
3.32	-0.075093	0.761099	-0.037713	1.130823	-10.725415	80.348541	20.082544	-2.740022	5.279712	-60.643119	34.301459	0	0	29.956868	11.920856	28.438797	-59.759381	30.96971	0	0	29.428082	1.723319	19.811541	0	0	0	0	0	0	54.97575	450.102936	1.03553	-0.206074	-0.006277	0.018443	0	0	0	-0.012673	11.033732	-0.023453
